@startuml

' Copyright (c) 2025 Contributors to the Eclipse Foundation
'
' See the NOTICE file(s) distributed with this work for additional
' information regarding copyright ownership.
'
' This program and the accompanying materials are made available under the
' terms of the Apache License Version 2.0 which is available at
' <https://www.apache.org/licenses/LICENSE-2.0>
'
' SPDX-License-Identifier: Apache-2.0


entity project {}

entity com-api-gen {}

entity com-api-gen-adapter {}

entity com-api {}

entity com-api-concept {}

entity com-api-runtime-adapter {}

project --> "com-api-gen"
project --> "com-api"
"com-api-gen" --> "com-api-gen-adapter"
"com-api-gen-adapter" --> "com-api"
"com-api-gen-adapter" --> "com-api-runtime-adapter"
"com-api" --> "com-api-concept"
"com-api" --> "com-api-runtime-adapter"
"com-api-runtime-adapter" --> "com-api-concept"



@enduml
